<?xml version="1.0" encoding="iso-8859-1"?>
<!-- Generator: Adobe Illustrator 19.1.0, SVG Export Plug-In . SVG Version: 6.00 Build 0)  -->
<svg version="1.1" id="Layer_1" xmlns="http://www.w3.org/2000/svg" xmlns:xlink="http://www.w3.org/1999/xlink" x="0px" y="0px"
	 viewBox="0 0 79.311 48.753" style="enable-background:new 0 0 79.311 48.753;" xml:space="preserve">
<g>
	<path fill="#B0B4B8" style="fill-rule:evenodd;clip-rule:evenodd;" d="M18.868,17.755h10.841c9.774,0,16.01,6.011,16.01,15.392
		c0,10.392-6.909,15.448-17.919,15.448h-8.932V17.755L18.868,17.755z M29.038,24.829c-0.393,0-0.899,0.056-1.573,0.056v16.628
		c5.505,0,9.774-2.191,9.774-8.538C37.239,27.525,33.756,24.829,29.038,24.829L29.038,24.829z"/>
	<path fill="#B0B4B8" style="fill-rule:evenodd;clip-rule:evenodd;" d="M79.311,26.733v-8.145c-2.191-0.899-4.157-1.405-6.909-1.405
		c-9.044,0-16.291,6.853-16.291,15.897c0,9.044,7.134,15.673,16.122,15.673c3.202,0,5.393-0.674,7.078-1.966v-8.145
		c-2.528,1.573-4.269,2.247-6.628,2.247c-4.55,0-8.089-3.314-8.089-8.201c0-4.775,3.595-8.258,8.089-8.258
		C75.154,24.43,76.952,25.273,79.311,26.733L79.311,26.733z"/>
	<path fill="#B0B4B8" style="fill-rule:evenodd;clip-rule:evenodd;" d="M0,11.572v1.461h6.011v-1.461c-1.741-0.056-2.022-0.281-2.022-1.461V2.753
		l3.595,10.28H9.1l3.876-10.28v7.19c0,1.517,0,1.517-2.135,1.629v1.461h6.966v-1.461c-2.022,0-2.078-0.225-2.078-1.292V3.09
		c0-1.18,0.168-1.573,2.078-1.573V0h-5.954L8.819,8.258L6.011,0H0v1.517c1.685,0,1.966,0,1.966,1.461v6.909
		C1.966,11.235,1.966,11.572,0,11.572L0,11.572z"/>
	<path fill="#B0B4B8" style="fill-rule:evenodd;clip-rule:evenodd;" d="M29.146,11.572v1.461h5.561v-1.461c-1.348-0.056-1.348-0.225-1.348-2.078
		V7.921c0-1.517,0.674-2.753,2.078-2.753c1.124,0,1.461,0.73,1.461,1.741v3.314c0,1.123-0.056,1.348-1.404,1.348v1.461h4.999v-1.461
		c-1.18,0-1.292-0.112-1.292-1.236V8.033c0-1.573,0.73-2.921,2.191-2.921c1.123,0,1.348,0.674,1.348,2.022v3.37
		c0,0.955,0,1.067-1.348,1.067v1.461h5.505v-1.461c-1.685,0-1.798,0.056-1.798-0.899V6.909c0-2.135-0.506-3.37-2.696-3.37
		c-1.292,0-2.135,0.506-3.202,1.629c-0.562-1.011-1.348-1.685-2.696-1.685c-1.404,0-2.359,0.73-3.146,1.798V3.764h-4.213v1.348
		C30.831,5.112,31,5.168,31,6.516v3.089C31,11.572,31,11.572,29.146,11.572L29.146,11.572z"/>
	<polygon fill="#B0B4B8" style="fill-rule:evenodd;clip-rule:evenodd;" points="0.27,17.755 0.27,48.595 8.752,48.595 8.808,36.798 17.066,36.798
		17.066,29.664 8.864,29.664 8.808,24.889 17.684,24.889 17.684,17.755 0.27,17.755 	"/>
	<path fill="#B0B4B8" style="fill-rule:evenodd;clip-rule:evenodd;" d="M47.57,0.004h3.932v4.775c1.067-0.899,1.741-1.236,2.809-1.236
		c2.247,0,3.764,2.022,3.764,4.831c0,3.033-1.517,5-4.101,5c-1.236,0-2.022-0.393-2.865-1.292l-0.787,1.067h-1.18V3.037
		c0-1.517-0.112-1.685-1.573-1.685V0.004L47.57,0.004z M55.436,8.369c0-2.135-0.786-3.202-1.91-3.202
		c-1.461,0-2.079,1.18-2.079,3.37c0,1.91,0.73,3.202,2.022,3.202C54.538,11.74,55.436,10.729,55.436,8.369L55.436,8.369z"/>
	<path fill="#B0B4B8" style="fill-rule:evenodd;clip-rule:evenodd;" d="M70.038,11.572v1.461h6.067v-1.461c-1.685,0-1.854,0.056-1.854-1.292V8.258
		c0-1.854,0.618-3.539,2.303-3.539c0.112,0,0.225,0,0.562,0.112c-0.562,0.281-0.955,0.674-0.955,1.292
		c0,0.73,0.562,1.236,1.292,1.236c0.899,0,1.517-0.674,1.517-1.685c0-1.236-0.899-2.135-2.135-2.135
		c-1.011,0-1.742,0.506-2.64,1.517V3.764h-4.157v1.348c1.461,0,1.854,0,1.854,1.236v3.82C71.892,11.46,71.892,11.572,70.038,11.572
		L70.038,11.572z"/>
	<path fill="#B0B4B8" style="fill-rule:evenodd;clip-rule:evenodd;" d="M62.399,8.656c0,1.797,0.843,3.033,2.359,3.033
		c1.348,0,1.966-0.787,2.191-2.022h1.685c-0.281,2.359-1.854,3.651-4.101,3.651c-2.696,0-4.719-1.629-4.719-4.775
		c0-2.865,1.797-5,4.494-5c2.64,0,4.325,2.022,4.325,5.112H62.399L62.399,8.656z M64.309,4.996c-1.123,0-1.798,0.787-1.798,2.191
		h3.539C66.051,5.727,65.489,4.996,64.309,4.996L64.309,4.996z"/>
	<path fill="#B0B4B8" style="fill-rule:evenodd;clip-rule:evenodd;" d="M21.507,8.656c0,1.797,0.899,3.033,2.416,3.033
		c1.348,0,1.966-0.787,2.191-2.022h1.629c-0.281,2.359-1.798,3.651-4.045,3.651c-2.696,0-4.775-1.629-4.775-4.775
		c0-2.865,1.854-5,4.55-5c2.64,0,4.269,2.022,4.269,5.112H21.507L21.507,8.656z M23.473,4.996c-1.123,0-1.798,0.787-1.798,2.191
		h3.483C25.158,5.671,24.596,4.996,23.473,4.996L23.473,4.996z"/>
	<polygon fill="#B0B4B8" style="fill-rule:evenodd;clip-rule:evenodd;" points="46.618,48.595 55.1,48.595 55.1,17.755 46.618,17.755
		46.618,48.595 	"/>
</g>
</svg>
