<?xml version="1.0" encoding="UTF-8"?>
<svg width="334px" height="56px" viewBox="0 0 334 56" version="1.1" xmlns="http://www.w3.org/2000/svg" xmlns:xlink="http://www.w3.org/1999/xlink">
    <!-- Generator: sketchtool 51.1 (57501) - http://www.bohemiancoding.com/sketch -->
    <title>4B8F1EFF-38AB-4EC7-876E-109BD6C84648-1648-0000506D5D1B777C</title>
    <desc>Created with sketchtool.</desc>
    <defs>
        <polygon id="path-1" points="0.49842745 0.00271100099 9.95982091 0.00271100099 9.95982091 10.5795161 0.49842745 10.5795161"></polygon>
        <polygon id="path-3" points="0 55.1215268 333.472958 55.1215268 333.472958 0.000264487902 0 0.000264487902"></polygon>
    </defs>
    <g id="Page-1" stroke="none" stroke-width="1" fill="none" fill-rule="evenodd">
        <g id="desktop-home" transform="translate(-207.000000, -56.000000)">
            <g id="header">
                <g id="logo" transform="translate(207.000000, 22.000000)">
                    <g id="FirstChoiceBank-logo" transform="translate(0.000000, 34.232767)">
                        <path d="M93.9707,41.8093218 L92.8082757,45.7766403 C93.5990945,45.7660608 94.1128622,45.7349834 94.3502401,45.6834083 C94.7377149,45.6060456 95.0888226,45.4420631 95.4042244,45.1914608 C95.7196262,44.9408585 95.9827917,44.5937181 96.194382,44.1493785 L96.4965595,44.1493785 L95.2957844,48.2952263 L94.9856723,48.2952263 C95.0372475,48.0261099 95.063035,47.8118747 95.063035,47.6518595 C95.063035,47.3318292 94.9975743,47.0759371 94.8659915,46.8848446 C94.7337476,46.6937521 94.5644753,46.5628306 94.3581748,46.4934025 C94.151213,46.4239744 93.5832252,46.3783503 92.6535502,46.3578525 L91.708006,49.6355188 L91.5222033,50.2940936 C91.4964157,50.4230315 91.4831913,50.5499857 91.4831913,50.6736338 C91.4831913,50.854808 91.5182359,50.9969702 91.587664,51.1001205 C91.6577533,51.2032708 91.7701607,51.2846008 91.9248861,51.3441106 C92.0802727,51.4036204 92.3745155,51.4360202 92.8082757,51.4406487 L92.7229783,51.7276181 L87.477522,51.7276181 L87.5628194,51.4406487 C88.0686525,51.4406487 88.4382743,51.3467555 88.6703625,51.1583079 C88.9031118,50.9698602 89.1120572,50.5572591 89.2985212,49.9224881 L91.1737404,43.4908036 C91.3694615,42.8143758 91.473273,42.3799544 91.4831913,42.1888619 C91.473273,42.0083489 91.3906205,41.8542847 91.2352339,41.7279917 C91.0805085,41.6016988 90.7624618,41.5276422 90.2824162,41.5071443 L90.3597789,41.220175 L98.9450562,41.220175 L98.2401959,43.9946531 L97.9532266,43.9946531 C97.9228105,43.4160858 97.8322234,42.9856317 97.6821265,42.7046133 C97.5326908,42.4229337 97.2860558,42.2034087 96.9422216,42.0453772 C96.5990485,41.8880069 96.0502361,41.8093218 95.2957844,41.8093218 L93.9707,41.8093218 Z" id="Fill-1" fill="#003468"></path>
                        <path d="M101.626368,40.9802183 C101.946399,40.9802183 102.216838,41.0913032 102.436363,41.3134731 C102.655888,41.5356429 102.76565,41.8040981 102.76565,42.1195 C102.76565,42.4342406 102.654565,42.7026958 102.432395,42.9248656 C102.210225,43.1470355 101.94177,43.2581204 101.626368,43.2581204 C101.316256,43.2581204 101.050446,43.1470355 100.828276,42.9248656 C100.606106,42.7026958 100.495021,42.4342406 100.495021,42.1195 C100.495021,41.8040981 100.604784,41.5356429 100.824309,41.3134731 C101.043834,41.0913032 101.310967,40.9802183 101.626368,40.9802183 Z M102.107075,44.544854 L100.518164,50.054137 C100.430222,50.3688776 100.386581,50.5758394 100.386581,50.6736999 C100.386581,50.7305648 100.409724,50.7834624 100.456009,50.8323926 C100.502956,50.8819841 100.551886,50.9064493 100.603461,50.9064493 C100.691404,50.9064493 100.779346,50.8674373 100.867288,50.7900746 C101.099376,50.5989821 101.378411,50.2525029 101.703731,49.7519596 L101.967558,49.906685 C101.187319,51.2654916 100.358149,51.9445643 99.4800491,51.9445643 C99.1441495,51.9445643 98.8770167,51.8500099 98.6779895,51.6615622 C98.4789624,51.4731146 98.3797794,51.2344143 98.3797794,50.9448 C98.3797794,50.7537075 98.4234199,50.5110398 98.5113622,50.2167971 L99.5884891,46.512644 C99.6916394,46.1562466 99.7432146,45.8877913 99.7432146,45.7066171 C99.7432146,45.5935485 99.6942843,45.4923819 99.5964238,45.4044397 C99.497902,45.3171587 99.3636744,45.272857 99.1930797,45.272857 C99.115717,45.272857 99.022485,45.2755018 98.914045,45.2807916 L99.0152116,44.9706795 L101.641576,44.544854 L102.107075,44.544854 Z" id="Fill-3" fill="#003468"></path>
                        <path d="M106.229053,44.5445895 L105.058694,48.8993828 C106.020108,46.7762062 106.742821,45.4689747 107.228817,44.9783497 C107.512481,44.6893966 107.812674,44.5445895 108.127415,44.5445895 C108.344295,44.5445895 108.520179,44.6232747 108.654407,44.780645 C108.788635,44.9386765 108.856079,45.1621688 108.856079,45.4511218 C108.856079,45.9523264 108.734415,46.3735234 108.491747,46.7140515 C108.337022,46.9309316 108.163782,47.0393717 107.97269,47.0393717 C107.765728,47.0393717 107.611002,46.944156 107.507852,46.7530635 C107.404041,46.561971 107.331968,46.4495636 107.290311,46.4158414 C107.249315,46.3821192 107.205675,46.3655887 107.158728,46.3655887 C107.107153,46.3655887 107.052933,46.3807968 106.996068,46.4118741 C106.882338,46.4740288 106.734225,46.6247869 106.550406,46.8654709 C106.367248,47.1054936 106.141111,47.506854 105.872656,48.0702132 C105.6042,48.6335725 105.394594,49.1096507 105.245158,49.4997704 C105.095061,49.88989 104.886116,50.6324398 104.616999,51.7274197 L102.742441,51.7274197 L104.020579,46.5904034 C104.113811,46.2082184 104.160096,45.9549713 104.160096,45.8306619 C104.160096,45.6911446 104.135631,45.5827045 104.086701,45.5053418 C104.037771,45.4279791 103.970326,45.3711142 103.885029,45.3347471 C103.799732,45.2990413 103.623186,45.2805271 103.35407,45.2805271 L103.424159,45.0557124 L105.764216,44.5445895 L106.229053,44.5445895 Z" id="Fill-5" fill="#003468"></path>
                        <path d="M114.551165,44.5445895 L114.209975,46.9388663 L113.923667,46.9388663 C113.88201,46.3193033 113.69224,45.8306619 113.353696,45.4742645 C113.015813,45.117867 112.652803,44.9399989 112.265328,44.9399989 C112.02795,44.9399989 111.831568,45.009427 111.676181,45.1489444 C111.521456,45.2884617 111.444093,45.4564116 111.444093,45.6527938 C111.444093,45.8180988 111.477815,45.9728242 111.544599,46.1176313 C111.612043,46.2624384 111.761479,46.4588207 111.994228,46.7067781 C112.810173,47.584878 113.306088,48.1892328 113.481972,48.5198427 C113.657196,48.8504526 113.745138,49.2042051 113.745138,49.5811004 C113.745138,49.989073 113.641988,50.3752253 113.435687,50.7395574 C113.228725,51.1038895 112.919936,51.3954874 112.509318,51.6150123 C112.098701,51.8345373 111.671553,51.9442998 111.227213,51.9442998 C110.927681,51.9442998 110.558059,51.8854512 110.119009,51.7664317 C109.829395,51.6837792 109.612514,51.6421224 109.468369,51.6421224 C109.33877,51.6421224 109.238264,51.661959 109.16553,51.7003097 C109.093457,51.7393217 109.013449,51.8206517 108.925507,51.9442998 L108.639199,51.9442998 L109.018739,49.3642203 L109.266697,49.3642203 C109.44721,49.989073 109.616482,50.4347351 109.773852,50.7012066 C109.931884,50.967017 110.142152,51.1786073 110.405317,51.3359776 C110.669144,51.4940091 110.922391,51.5726943 111.165058,51.5726943 C111.449383,51.5726943 111.684116,51.4834296 111.869919,51.3055615 C112.056383,51.1270322 112.148953,50.9141194 112.148953,50.666162 C112.148953,50.4234944 112.088121,50.1881001 111.967118,49.9606405 C111.845454,49.7338422 111.565096,49.3794284 111.126047,48.8993828 C110.521692,48.2434528 110.124299,47.7369585 109.933206,47.380561 C109.798978,47.1220241 109.731534,46.8277813 109.731534,46.4971715 C109.731534,45.939102 109.934529,45.4742645 110.339856,45.102659 C110.745184,44.7303923 111.314494,44.5445895 112.048448,44.5445895 C112.368478,44.5445895 112.761243,44.6014544 113.22608,44.7151842 C113.45883,44.7720491 113.644633,44.8004816 113.78415,44.8004816 C113.985822,44.8004816 114.148482,44.7151842 114.27213,44.5445895 L114.551165,44.5445895 Z" id="Fill-7" fill="#003468"></path>
                        <path d="M119.370796,42.6538978 L118.751233,44.7618663 L119.766205,44.7618663 L119.494444,45.6525293 L118.495341,45.6525293 L117.201334,50.14684 C117.118681,50.4258747 117.077024,50.6374651 117.077024,50.7822722 C117.077024,50.8497166 117.100167,50.9072427 117.147114,50.9568342 C117.193399,51.0057645 117.244974,51.0302296 117.301839,51.0302296 C117.389781,51.0302296 117.480368,50.9938625 117.572939,50.9217896 C117.810978,50.7406153 118.087368,50.4258747 118.402109,49.9762453 L118.673209,50.14684 C118.316811,50.7670641 117.924047,51.2213221 117.495576,51.5109364 C117.067106,51.7998894 116.645909,51.9446965 116.232647,51.9446965 C115.881539,51.9446965 115.609116,51.8554319 115.415379,51.6769025 C115.221642,51.4990344 115.124442,51.2728972 115.124442,50.9991523 C115.124442,50.6996197 115.191887,50.3147898 115.326114,49.8446626 L116.550032,45.6525293 L115.496709,45.6525293 L115.651435,45.0792518 C116.312654,44.8365842 116.870724,44.5522597 117.324982,44.2269396 C117.779901,43.9016194 118.327391,43.3772722 118.968113,42.6538978 L119.370796,42.6538978 Z" id="Fill-9" fill="#003468"></path>
                        <path d="M126.763034,40.9802183 C127.083064,40.9802183 127.353503,41.0913032 127.573028,41.3134731 C127.792553,41.5356429 127.902316,41.8040981 127.902316,42.1195 C127.902316,42.4342406 127.791231,42.7026958 127.569061,42.9248656 C127.346891,43.1470355 127.078436,43.2581204 126.763034,43.2581204 C126.452922,43.2581204 126.187112,43.1470355 125.964942,42.9248656 C125.742772,42.7026958 125.631687,42.4342406 125.631687,42.1195 C125.631687,41.8040981 125.74145,41.5356429 125.960975,41.3134731 C126.1805,41.0913032 126.447632,40.9802183 126.763034,40.9802183 Z M127.243741,44.544854 L125.65483,50.054137 C125.566888,50.3688776 125.523247,50.5758394 125.523247,50.6736999 C125.523247,50.7305648 125.54639,50.7834624 125.592675,50.8323926 C125.639622,50.8819841 125.688552,50.9064493 125.740127,50.9064493 C125.828069,50.9064493 125.916012,50.8674373 126.003954,50.7900746 C126.236042,50.5989821 126.515077,50.2525029 126.840397,49.7519596 L127.104223,49.906685 C126.323984,51.2654916 125.494815,51.9445643 124.616715,51.9445643 C124.280815,51.9445643 124.013682,51.8500099 123.814655,51.6615622 C123.615628,51.4731146 123.516445,51.2344143 123.516445,50.9448 C123.516445,50.7537075 123.560086,50.5110398 123.648028,50.2167971 L124.725155,46.512644 C124.828305,46.1562466 124.87988,45.8877913 124.87988,45.7066171 C124.87988,45.5935485 124.83095,45.4923819 124.733089,45.4044397 C124.634568,45.3171587 124.50034,45.272857 124.329745,45.272857 C124.252383,45.272857 124.159151,45.2755018 124.050711,45.2807916 L124.151877,44.9706795 L126.778242,44.544854 L127.243741,44.544854 Z" id="Fill-11" fill="#003468"></path>
                        <path d="M131.846161,44.5445895 L130.885409,47.8685412 C131.530759,46.8978706 132.014111,46.234006 132.334141,45.8776085 C132.804268,45.3605347 133.210257,45.009427 133.550785,44.8236243 C133.891975,44.6378215 134.212005,44.5445895 134.511538,44.5445895 C134.779993,44.5445895 135.010097,44.6437725 135.20119,44.8427996 C135.392283,45.0418268 135.488159,45.3016861 135.488159,45.6217165 C135.488159,45.9106695 135.426005,46.2624384 135.302357,46.6757008 L134.310527,49.9844444 C134.227875,50.2733975 134.186218,50.4618451 134.186218,50.5497873 C134.186218,50.6013625 134.205393,50.6476478 134.244405,50.6893047 C134.283417,50.7303003 134.32309,50.7514594 134.364747,50.7514594 C134.416322,50.7514594 134.470542,50.7303003 134.527407,50.6893047 C134.70792,50.5392078 134.891078,50.3276175 135.077542,50.0538725 C135.123827,49.9817996 135.198545,49.8733595 135.302357,49.7285524 L135.596599,49.9064205 C134.836858,51.1825746 134.038766,51.8206517 133.202323,51.8206517 C132.881631,51.8206517 132.631029,51.7379992 132.450516,51.5726943 C132.270003,51.4073893 132.179416,51.2004276 132.179416,50.9524702 C132.179416,50.7355901 132.24157,50.4129148 132.365218,49.9844444 L133.333905,46.6757008 C133.40135,46.4588207 133.434411,46.2981443 133.434411,46.194994 C133.434411,46.1381291 133.411268,46.0878764 133.364983,46.0442359 C133.318697,45.9999342 133.264477,45.9781139 133.202323,45.9781139 C133.00594,45.9781139 132.768563,46.1123416 132.489528,46.3807968 C131.776733,47.0631756 131.087081,48.0781479 130.420571,49.426375 L129.785139,51.7274197 L127.809414,51.7274197 L129.258147,46.7530635 C129.397664,46.2624384 129.467092,45.9133144 129.467092,45.7070138 C129.467092,45.6190716 129.446594,45.5456762 129.405599,45.4861665 C129.363942,45.4266567 129.297159,45.3803713 129.203927,45.3466491 C129.110695,45.3129269 128.935472,45.2963964 128.676935,45.2963964 L128.762232,45.0014924 L131.373389,44.5445895 L131.846161,44.5445895 Z" id="Fill-13" fill="#003468"></path>
                        <path d="M149.660347,40.9802183 L148.784892,44.544854 L148.529,44.544854 C148.472135,43.9867845 148.37163,43.5398 148.226822,43.2039003 C148.009942,42.718565 147.721651,42.3443147 147.362608,42.080488 C147.003566,41.8173225 146.61543,41.6850786 146.196878,41.6850786 C145.793534,41.6850786 145.441104,41.8391428 145.138926,42.14661 C144.836749,42.4540771 144.685991,42.8012175 144.685991,43.1886923 C144.685991,43.5708773 144.790463,43.9464501 144.999409,44.316072 C145.209015,44.6856938 145.703608,45.2417796 146.483186,45.9856519 C147.1087,46.5800884 147.527913,47.0912113 147.74281,47.5203429 C147.957045,47.9488133 148.064162,48.4136508 148.064162,48.9148554 C148.064162,49.4782146 147.914065,49.9972721 147.614533,50.4720279 C147.315,50.9474449 146.879918,51.3157443 146.309285,51.5762649 C145.737991,51.8374467 145.091318,51.967707 144.367944,51.967707 C143.923604,51.967707 143.364874,51.9022462 142.690429,51.7700023 C142.015985,51.6384195 141.568339,51.5729588 141.34617,51.5729588 C141.170285,51.5729588 141.012915,51.6000688 140.873398,51.6542888 C140.73388,51.7085088 140.560641,51.8129815 140.35434,51.967707 L140.052163,51.967707 L140.989772,47.9620377 L141.284015,47.9620377 C141.351459,48.6642531 141.49296,49.2619957 141.710502,49.7552657 C141.927382,50.2491968 142.236833,50.6340267 142.640177,50.9104166 C143.04286,51.1868064 143.502407,51.3250014 144.019481,51.3250014 C144.530604,51.3250014 144.958413,51.1557291 145.301586,50.8171846 C145.64542,50.4786401 145.817338,50.0825694 145.817338,49.6276503 C145.817338,49.2401755 145.720138,48.86857 145.526401,48.5121725 C145.332664,48.1557751 144.890969,47.6360564 144.201317,46.9543388 C143.511664,46.2726212 143.034925,45.6629766 142.771759,45.1260662 C142.580667,44.7280119 142.48479,44.30417 142.48479,43.8552018 C142.48479,43.0749625 142.792257,42.4005183 143.407192,41.8325306 C144.022126,41.2645428 144.825508,40.9802183 145.817338,40.9802183 C146.266306,40.9802183 146.858098,41.0807237 147.59139,41.2823957 C148.020522,41.4014153 148.322699,41.4609251 148.497923,41.4609251 C148.648019,41.4609251 148.782247,41.4285253 148.901267,41.3637258 C149.019625,41.2989262 149.159142,41.1713108 149.319157,40.9802183 L149.660347,40.9802183 Z" id="Fill-15" fill="#003468"></path>
                        <g id="Group-19" transform="translate(146.790785, 44.542011)">
                            <mask id="mask-2" fill="white">
                                <use xlink:href="#path-1"></use>
                            </mask>
                            <g id="Clip-18"></g>
                            <path d="M4.60526334,6.38744894 C4.75998876,6.64069611 4.89950613,6.80996837 5.02381545,6.89526571 C5.14746354,6.97990184 5.29227067,7.02288113 5.4575756,7.02288113 C5.62288054,7.02288113 5.78421816,6.97791818 5.94158846,6.88733108 C6.09961999,6.79674397 6.29467981,6.61490854 6.52676795,6.34116356 C6.7595173,6.06741858 6.98300958,5.71564967 7.19724478,5.28717927 C7.41147998,4.85804765 7.58339711,4.37138991 7.71233496,3.82654484 C7.84193404,3.28169976 7.90607235,2.76131981 7.90607235,2.265405 C7.90607235,1.86735071 7.83532184,1.57839767 7.69315959,1.39722346 C7.55099734,1.21671047 7.37908021,1.12612336 7.1780694,1.12612336 C6.99689519,1.12612336 6.82630049,1.17240875 6.66628531,1.26564073 C6.43419718,1.39986834 6.1604522,1.65047063 5.84505038,2.01744759 L4.60526334,6.38744894 Z M3.39655363,0.43647116 L5.96142506,0.00271100099 L6.42626254,0.00271100099 L6.07779973,1.26564073 C6.61999993,0.769725915 7.06433961,0.43514872 7.41015754,0.261909144 C7.75663669,0.0893307887 8.09980974,0.00271100099 8.44099913,0.00271100099 C8.92633443,0.00271100099 9.30124603,0.189836191 9.5644115,0.564086572 C9.82757696,0.938998172 9.95982091,1.39722346 9.95982091,1.93942366 C9.95982091,3.42253957 9.44539194,4.73704444 8.41785644,5.88359949 C7.50867928,6.89658815 6.51684965,7.40242127 5.44236755,7.40242127 C5.25127504,7.40242127 5.08795376,7.38456833 4.95372615,7.34820125 C4.81949854,7.31183416 4.63105091,7.23182657 4.38838326,7.10817848 L3.98570043,8.50269094 C3.84089331,9.00918527 3.76815913,9.39401516 3.76815913,9.65718063 C3.76815913,9.82248557 3.82502403,9.95340708 3.93875383,10.0486227 C4.05248363,10.1444996 4.31829397,10.2258296 4.73684607,10.2926128 L4.667418,10.5795822 L0.49842745,10.5795822 L0.575790162,10.2926128 C0.906400039,10.2826945 1.18146746,10.1762381 1.40099241,9.97522733 C1.62051737,9.7735553 1.82615672,9.33979514 2.01724922,8.67328563 L3.9076765,2.15696496 C4.04719387,1.67096844 4.11728316,1.32779539 4.11728316,1.12612336 C4.11728316,1.03818114 4.09612413,0.964785743 4.05512851,0.905275965 C4.01347166,0.845766187 3.95197822,0.803448123 3.86932576,0.777660552 C3.78667329,0.751872982 3.60020932,0.738648587 3.31125628,0.738648587 L3.39655363,0.43647116 Z" id="Fill-17" fill="#003468" mask="url(#mask-2)"></path>
                        </g>
                        <path d="M159.710424,48.4189405 C160.164682,48.3514961 160.517774,48.2602478 160.768376,48.1438731 C161.018978,48.0274985 161.264291,47.8416957 161.504313,47.5858037 C161.744336,47.3305728 161.95262,47.0072364 162.127844,46.6171167 C162.303728,46.2276583 162.39167,45.8620038 162.39167,45.5208144 C162.39167,45.3760072 162.351336,45.2629387 162.271328,45.1802862 C162.191321,45.0976337 162.089493,45.0559769 161.965184,45.0559769 C161.717226,45.0559769 161.438191,45.2292165 161.128741,45.5750344 C160.560092,46.2051768 160.08732,47.1533659 159.710424,48.4189405 M159.640996,48.8216234 C159.59405,49.157523 159.570907,49.4339129 159.570907,49.6507929 C159.570907,50.0382677 159.683314,50.3483798 159.908129,50.5811291 C160.132944,50.8132173 160.433799,50.929592 160.810694,50.929592 C161.172381,50.929592 161.535391,50.8416497 161.899723,50.6657653 C162.263394,50.490542 162.685913,50.1830749 163.16662,49.7440249 L163.398708,49.9529704 C162.804933,50.671055 162.226365,51.1828391 161.663006,51.4876614 C161.100308,51.7924837 160.477439,51.9445643 159.795722,51.9445643 C158.93283,51.9445643 158.33641,51.7382637 158.0058,51.3250014 C157.67519,50.911739 157.509885,50.4336771 157.509885,49.8914769 C157.509885,49.0437932 157.75652,48.1967707 158.24979,47.3497482 C158.74306,46.5027257 159.414859,45.8229918 160.264526,45.3118689 C161.114194,44.8000848 161.967828,44.544854 162.825431,44.544854 C163.259191,44.544854 163.587156,44.6480043 163.809325,44.8543049 C164.031495,45.0612666 164.14258,45.3217872 164.14258,45.637189 C164.14258,46.0140843 164.03414,46.3810613 163.81726,46.7374587 C163.517728,47.222794 163.140171,47.6142361 162.685913,47.9111238 C162.231655,48.2086727 161.722516,48.4341486 161.159157,48.5895352 C160.782261,48.6926855 160.275767,48.7700482 159.640996,48.8216234" id="Fill-20" fill="#003468"></path>
                        <path d="M166.753935,48.4189405 C167.208193,48.3514961 167.561285,48.2602478 167.811887,48.1438731 C168.062489,48.0274985 168.307802,47.8416957 168.547825,47.5858037 C168.787847,47.3305728 168.996132,47.0072364 169.171355,46.6171167 C169.347239,46.2276583 169.435182,45.8620038 169.435182,45.5208144 C169.435182,45.3760072 169.394847,45.2629387 169.31484,45.1802862 C169.234832,45.0976337 169.133004,45.0559769 169.008695,45.0559769 C168.760737,45.0559769 168.481703,45.2292165 168.172252,45.5750344 C167.603603,46.2051768 167.130831,47.1533659 166.753935,48.4189405 M166.684507,48.8216234 C166.637561,49.157523 166.614418,49.4339129 166.614418,49.6507929 C166.614418,50.0382677 166.726825,50.3483798 166.95164,50.5811291 C167.176455,50.8132173 167.47731,50.929592 167.854205,50.929592 C168.215892,50.929592 168.578902,50.8416497 168.943234,50.6657653 C169.306905,50.490542 169.729424,50.1830749 170.210131,49.7440249 L170.442219,49.9529704 C169.848444,50.671055 169.269877,51.1828391 168.706517,51.4876614 C168.143819,51.7924837 167.52095,51.9445643 166.839233,51.9445643 C165.976341,51.9445643 165.379921,51.7382637 165.049311,51.3250014 C164.718701,50.911739 164.553396,50.4336771 164.553396,49.8914769 C164.553396,49.0437932 164.800031,48.1967707 165.293301,47.3497482 C165.786571,46.5027257 166.45837,45.8229918 167.308038,45.3118689 C168.157705,44.8000848 169.01134,44.544854 169.868942,44.544854 C170.302702,44.544854 170.630667,44.6480043 170.852837,44.8543049 C171.075007,45.0612666 171.186091,45.3217872 171.186091,45.637189 C171.186091,46.0140843 171.077651,46.3810613 170.860771,46.7374587 C170.561239,47.222794 170.183682,47.6142361 169.729424,47.9111238 C169.275166,48.2086727 168.766027,48.4341486 168.202668,48.5895352 C167.825773,48.6926855 167.319278,48.7700482 166.684507,48.8216234" id="Fill-22" fill="#003468"></path>
                        <path d="M176.494033,45.8928166 C176.494033,45.5774148 176.431878,45.3479715 176.30823,45.2031644 C176.183921,45.0583573 176.039775,44.9862843 175.87447,44.9862843 C175.709165,44.9862843 175.530636,45.0715817 175.339543,45.2421764 C174.972566,45.5727862 174.589059,46.2373121 174.189021,47.2370764 C173.788322,48.2368406 173.587972,49.0772509 173.587972,49.7596297 C173.587972,50.0075871 173.632274,50.190745 173.720216,50.3097646 C173.808158,50.4281229 173.906019,50.4876327 174.014459,50.4876327 C174.194972,50.4876327 174.376146,50.4049802 174.556659,50.2396753 C174.995709,49.8469107 175.428808,49.1718054 175.854634,48.2136979 C176.28112,47.2555905 176.494033,46.4819634 176.494033,45.8928166 Z M179.903282,40.9799538 L177.385357,49.6511897 C177.224681,50.1933899 177.144673,50.5213549 177.144673,50.6350847 C177.144673,50.6919496 177.165832,50.7408798 177.206828,50.7825367 C177.248485,50.8235323 177.292125,50.8440301 177.338411,50.8440301 C177.426353,50.8440301 177.526858,50.8003896 177.640588,50.7124474 C177.831681,50.5676403 178.06443,50.2938953 178.338175,49.8912125 L178.61721,50.0386645 C177.888545,51.3088676 177.087808,51.9442998 176.214998,51.9442998 C175.904886,51.9442998 175.666186,51.8629698 175.498236,51.7003097 C175.330286,51.5376496 175.246311,51.3300266 175.246311,51.0767795 C175.246311,50.8341118 175.313756,50.4876327 175.447983,50.0386645 L175.680733,49.2478456 C175.034721,50.3897721 174.474007,51.1488524 173.999251,51.5264089 C173.637564,51.8047824 173.285795,51.9442998 172.945267,51.9442998 C172.557792,51.9442998 172.231149,51.7869295 171.964678,51.4721889 C171.698867,51.1567871 171.565962,50.6972393 171.565962,50.0928845 C171.565962,49.3225635 171.736557,48.5634832 172.077085,47.8143212 C172.418274,47.0651592 172.812361,46.4403066 173.258685,45.939102 C173.705669,45.4385586 174.132156,45.0801775 174.537484,44.8659423 C174.942811,44.6517071 175.342188,44.5445895 175.734953,44.5445895 C175.935964,44.5445895 176.115815,44.5855851 176.273186,44.6682376 C176.430556,44.7508901 176.610408,44.9062767 176.811418,45.1337363 L177.385357,43.2042971 C177.524875,42.7288801 177.594303,42.3876907 177.594303,42.1813901 C177.594303,42.0570808 177.548017,41.9512856 177.454785,41.8633434 C177.361553,41.7754012 177.237905,41.7317607 177.08318,41.7317607 C177.010446,41.7317607 176.92052,41.7396953 176.811418,41.7549034 L176.889442,41.452726 L179.438445,40.9799538 L179.903282,40.9799538 Z" id="Fill-24" fill="#003468"></path>
                        <mask id="mask-4" fill="white">
                            <use xlink:href="#path-3"></use>
                        </mask>
                        <g id="Clip-27"></g>
                        <polygon id="Fill-26" fill="#003468" mask="url(#mask-4)" points="184.340794 53.0499253 185.736629 53.0499253 185.736629 38.6128532 184.340794 38.6128532"></polygon>
                        <path d="M199.566966,40.9802183 L198.691511,44.544854 L198.435619,44.544854 C198.378754,43.9867845 198.278248,43.5398 198.133441,43.2039003 C197.916561,42.718565 197.628269,42.3443147 197.269227,42.080488 C196.910185,41.8173225 196.522049,41.6850786 196.103497,41.6850786 C195.700153,41.6850786 195.347722,41.8391428 195.045545,42.14661 C194.743368,42.4540771 194.59261,42.8012175 194.59261,43.1886923 C194.59261,43.5708773 194.697082,43.9464501 194.906028,44.316072 C195.115634,44.6856938 195.610227,45.2417796 196.389805,45.9856519 C197.015319,46.5800884 197.434532,47.0912113 197.649428,47.5203429 C197.863664,47.9488133 197.970781,48.4136508 197.970781,48.9148554 C197.970781,49.4782146 197.820684,49.9972721 197.521152,50.4720279 C197.221619,50.9474449 196.786537,51.3157443 196.215904,51.5762649 C195.64461,51.8374467 194.997937,51.967707 194.274563,51.967707 C193.830223,51.967707 193.271492,51.9022462 192.597048,51.7700023 C191.922604,51.6384195 191.474958,51.5729588 191.252789,51.5729588 C191.076904,51.5729588 190.919534,51.6000688 190.780016,51.6542888 C190.640499,51.7085088 190.467259,51.8129815 190.260959,51.967707 L189.958781,51.967707 L190.896391,47.9620377 L191.190634,47.9620377 C191.258078,48.6642531 191.399579,49.2619957 191.617121,49.7552657 C191.834001,50.2491968 192.143452,50.6340267 192.546796,50.9104166 C192.949478,51.1868064 193.409026,51.3250014 193.9261,51.3250014 C194.437223,51.3250014 194.865032,51.1557291 195.208205,50.8171846 C195.552039,50.4786401 195.723956,50.0825694 195.723956,49.6276503 C195.723956,49.2401755 195.626757,48.86857 195.43302,48.5121725 C195.239282,48.1557751 194.797588,47.6360564 194.107935,46.9543388 C193.418283,46.2726212 192.941544,45.6629766 192.678378,45.1260662 C192.487286,44.7280119 192.391409,44.30417 192.391409,43.8552018 C192.391409,43.0749625 192.698876,42.4005183 193.31381,41.8325306 C193.928745,41.2645428 194.732127,40.9802183 195.723956,40.9802183 C196.172925,40.9802183 196.764716,41.0807237 197.498009,41.2823957 C197.927141,41.4014153 198.229318,41.4609251 198.404541,41.4609251 C198.554638,41.4609251 198.688866,41.4285253 198.807885,41.3637258 C198.926244,41.2989262 199.065761,41.1713108 199.225776,40.9802183 L199.566966,40.9802183 Z" id="Fill-28" fill="#003468" mask="url(#mask-4)"></path>
                        <path d="M201.68234,48.4189405 C202.136598,48.3514961 202.489689,48.2602478 202.740292,48.1438731 C202.990894,48.0274985 203.236206,47.8416957 203.476229,47.5858037 C203.716252,47.3305728 203.924536,47.0072364 204.099759,46.6171167 C204.275644,46.2276583 204.363586,45.8620038 204.363586,45.5208144 C204.363586,45.3760072 204.323252,45.2629387 204.243244,45.1802862 C204.163236,45.0976337 204.061409,45.0559769 203.937099,45.0559769 C203.689142,45.0559769 203.410107,45.2292165 203.100656,45.5750344 C202.532007,46.2051768 202.059235,47.1533659 201.68234,48.4189405 M201.612912,48.8216234 C201.565965,49.157523 201.542823,49.4339129 201.542823,49.6507929 C201.542823,50.0382677 201.65523,50.3483798 201.880045,50.5811291 C202.104859,50.8132173 202.405714,50.929592 202.78261,50.929592 C203.144297,50.929592 203.507306,50.8416497 203.871639,50.6657653 C204.235309,50.490542 204.657829,50.1830749 205.138536,49.7440249 L205.370624,49.9529704 C204.776848,50.671055 204.198281,51.1828391 203.634922,51.4876614 C203.072224,51.7924837 202.449355,51.9445643 201.767637,51.9445643 C200.904746,51.9445643 200.308325,51.7382637 199.977715,51.3250014 C199.647106,50.911739 199.481801,50.4336771 199.481801,49.8914769 C199.481801,49.0437932 199.728436,48.1967707 200.221706,47.3497482 C200.714975,46.5027257 201.386775,45.8229918 202.236442,45.3118689 C203.086109,44.8000848 203.939744,44.544854 204.797346,44.544854 C205.231106,44.544854 205.559071,44.6480043 205.781241,44.8543049 C206.003411,45.0612666 206.114496,45.3217872 206.114496,45.637189 C206.114496,46.0140843 206.006056,46.3810613 205.789176,46.7374587 C205.489643,47.222794 205.112087,47.6142361 204.657829,47.9111238 C204.203571,48.2086727 203.694432,48.4341486 203.131072,48.5895352 C202.754177,48.6926855 202.247683,48.7700482 201.612912,48.8216234" id="Fill-29" fill="#003468" mask="url(#mask-4)"></path>
                        <path d="M209.934693,44.5445895 L208.764334,48.8993828 C209.725748,46.7762062 210.448461,45.4689747 210.934457,44.9783497 C211.218121,44.6893966 211.518314,44.5445895 211.833055,44.5445895 C212.049935,44.5445895 212.22582,44.6232747 212.360047,44.780645 C212.494275,44.9386765 212.561719,45.1621688 212.561719,45.4511218 C212.561719,45.9523264 212.440055,46.3735234 212.197387,46.7140515 C212.042662,46.9309316 211.869422,47.0393717 211.67833,47.0393717 C211.471368,47.0393717 211.316642,46.944156 211.213492,46.7530635 C211.109681,46.561971 211.037608,46.4495636 210.995951,46.4158414 C210.954955,46.3821192 210.911315,46.3655887 210.864368,46.3655887 C210.812793,46.3655887 210.758573,46.3807968 210.701708,46.4118741 C210.587978,46.4740288 210.439865,46.6247869 210.256046,46.8654709 C210.072888,47.1054936 209.846751,47.506854 209.578296,48.0702132 C209.30984,48.6335725 209.100234,49.1096507 208.950798,49.4997704 C208.800701,49.88989 208.591756,50.6324398 208.322639,51.7274197 L206.448081,51.7274197 L207.726219,46.5904034 C207.819451,46.2082184 207.865736,45.9549713 207.865736,45.8306619 C207.865736,45.6911446 207.841271,45.5827045 207.792341,45.5053418 C207.743411,45.4279791 207.675966,45.3711142 207.590669,45.3347471 C207.505372,45.2990413 207.328826,45.2805271 207.05971,45.2805271 L207.129799,45.0557124 L209.469856,44.5445895 L209.934693,44.5445895 Z" id="Fill-30" fill="#003468" mask="url(#mask-4)"></path>
                        <path d="M214.537378,51.9445643 L214.258343,51.9445643 C214.274212,51.5207224 214.281486,51.2006921 214.281486,50.983812 C214.281486,50.3946652 214.236523,49.5436753 214.145936,48.4308425 C214.055348,47.3173484 213.953521,46.5747987 213.839791,46.2025319 C213.75251,45.928787 213.636135,45.730421 213.491328,45.6061117 C213.393467,45.5234592 213.266513,45.4824636 213.111788,45.4824636 C213.023846,45.4824636 212.91805,45.4923819 212.793741,45.5128797 L212.793741,45.2345062 L215.374482,44.544854 C215.890895,45.9545745 216.141497,47.7603657 216.125628,49.960905 C216.885369,49.2375306 217.408394,48.6516899 217.694702,48.2020605 C217.981671,47.752431 218.125156,47.3781807 218.125156,47.0786481 C218.125156,46.840609 218.035891,46.5992638 217.857362,46.3539513 C217.679494,46.1086387 217.568409,45.9340767 217.524769,45.8309264 C217.480467,45.7277761 217.458647,45.6140464 217.458647,45.489737 C217.458647,45.2212818 217.546589,44.9964671 217.721812,44.8159541 C217.897696,44.6347799 218.119866,44.544854 218.388322,44.544854 C218.672646,44.544854 218.892171,44.6347799 219.046896,44.8159541 C219.263776,45.0692013 219.372217,45.3687338 219.372217,45.7145518 C219.372217,46.0709492 219.309401,46.4207345 219.182446,46.7645687 C219.056153,47.108403 218.839273,47.5137307 218.531806,47.9812131 C218.224339,48.4486954 217.882488,48.8731985 217.504932,49.2560448 C216.812635,49.9582601 215.82345,50.8548741 214.537378,51.9445643" id="Fill-31" fill="#003468" mask="url(#mask-4)"></path>
                        <path d="M222.960193,40.9802183 C223.280224,40.9802183 223.550662,41.0913032 223.770187,41.3134731 C223.989712,41.5356429 224.099475,41.8040981 224.099475,42.1195 C224.099475,42.4342406 223.98839,42.7026958 223.76622,42.9248656 C223.54405,43.1470355 223.275595,43.2581204 222.960193,43.2581204 C222.650081,43.2581204 222.384271,43.1470355 222.162101,42.9248656 C221.939931,42.7026958 221.828846,42.4342406 221.828846,42.1195 C221.828846,41.8040981 221.938609,41.5356429 222.158134,41.3134731 C222.377659,41.0913032 222.644791,40.9802183 222.960193,40.9802183 Z M223.4409,44.544854 L221.851989,50.054137 C221.764047,50.3688776 221.720406,50.5758394 221.720406,50.6736999 C221.720406,50.7305648 221.743549,50.7834624 221.789834,50.8323926 C221.836781,50.8819841 221.885711,50.9064493 221.937286,50.9064493 C222.025229,50.9064493 222.113171,50.8674373 222.201113,50.7900746 C222.433201,50.5989821 222.712236,50.2525029 223.037556,49.7519596 L223.301383,49.906685 C222.521143,51.2654916 221.691974,51.9445643 220.813874,51.9445643 C220.477974,51.9445643 220.210842,51.8500099 220.011814,51.6615622 C219.812787,51.4731146 219.713604,51.2344143 219.713604,50.9448 C219.713604,50.7537075 219.757245,50.5110398 219.845187,50.2167971 L220.922314,46.512644 C221.025464,46.1562466 221.077039,45.8877913 221.077039,45.7066171 C221.077039,45.5935485 221.028109,45.4923819 220.930249,45.4044397 C220.831727,45.3171587 220.697499,45.272857 220.526905,45.272857 C220.449542,45.272857 220.35631,45.2755018 220.24787,45.2807916 L220.349036,44.9706795 L222.975401,44.544854 L223.4409,44.544854 Z" id="Fill-32" fill="#003468" mask="url(#mask-4)"></path>
                        <path d="M229.763549,49.8601351 L229.996299,50.0690806 C229.495094,50.6688069 229.001824,51.1078568 228.515828,51.3868915 C227.870477,51.758497 227.201323,51.9442998 226.509026,51.9442998 C226.044188,51.9442998 225.632248,51.8451168 225.273206,51.6460897 C224.914164,51.4470625 224.649676,51.168689 224.479081,50.8096467 C224.308486,50.4506044 224.223189,50.082305 224.223189,49.7054097 C224.223189,48.857726 224.453294,48.0252503 224.912841,47.205999 C225.372389,46.387409 225.979389,45.7394136 226.733841,45.2613517 C227.488292,44.7832899 228.22952,44.5445895 228.957523,44.5445895 C229.54138,44.5445895 229.98043,44.6735274 230.274672,44.9320643 C230.569576,45.1906012 230.716367,45.5106316 230.716367,45.8928166 C230.716367,46.2386345 230.605282,46.5335385 230.383112,46.7762062 C230.161604,47.0188738 229.913646,47.1405383 229.639901,47.1405383 C229.401862,47.1405383 229.204158,47.0631756 229.046787,46.9077889 C228.889417,46.7530635 228.810732,46.5692444 228.810732,46.3576541 C228.810732,46.0786194 228.950249,45.8359517 229.228623,45.6296511 C229.419715,45.484844 229.515592,45.3578898 229.515592,45.2494498 C229.515592,45.156879 229.47658,45.0815 229.399217,45.0252963 C229.296067,44.9426438 229.161839,44.900987 228.996535,44.900987 C228.562774,44.900987 228.154141,45.0768714 227.771956,45.4279791 C227.266122,45.8928166 226.878648,46.4819634 226.609531,47.1947583 C226.341076,47.9075532 226.206848,48.583981 226.206848,49.2247029 C226.206848,49.7311973 226.343721,50.1352025 226.617466,50.43738 C226.891211,50.7395574 227.216531,50.8909767 227.594087,50.8909767 C227.924697,50.8909767 228.282417,50.8056794 228.667247,50.6350847 C229.052077,50.46449 229.417731,50.2059531 229.763549,49.8601351" id="Fill-33" fill="#003468" mask="url(#mask-4)"></path>
                        <path d="M233.397679,48.4189405 C233.851937,48.3514961 234.205029,48.2602478 234.455631,48.1438731 C234.706233,48.0274985 234.951546,47.8416957 235.191569,47.5858037 C235.431591,47.3305728 235.639876,47.0072364 235.815099,46.6171167 C235.990983,46.2276583 236.078925,45.8620038 236.078925,45.5208144 C236.078925,45.3760072 236.038591,45.2629387 235.958583,45.1802862 C235.878576,45.0976337 235.776748,45.0559769 235.652439,45.0559769 C235.404481,45.0559769 235.125447,45.2292165 234.815996,45.5750344 C234.247347,46.2051768 233.774575,47.1533659 233.397679,48.4189405 M233.328251,48.8216234 C233.281305,49.157523 233.258162,49.4339129 233.258162,49.6507929 C233.258162,50.0382677 233.370569,50.3483798 233.595384,50.5811291 C233.820199,50.8132173 234.121054,50.929592 234.497949,50.929592 C234.859636,50.929592 235.222646,50.8416497 235.586978,50.6657653 C235.950649,50.490542 236.373168,50.1830749 236.853875,49.7440249 L237.085963,49.9529704 C236.492188,50.671055 235.91362,51.1828391 235.350261,51.4876614 C234.787563,51.7924837 234.164694,51.9445643 233.482977,51.9445643 C232.620085,51.9445643 232.023665,51.7382637 231.693055,51.3250014 C231.362445,50.911739 231.19714,50.4336771 231.19714,49.8914769 C231.19714,49.0437932 231.443775,48.1967707 231.937045,47.3497482 C232.430315,46.5027257 233.102114,45.8229918 233.951781,45.3118689 C234.801449,44.8000848 235.655084,44.544854 236.512686,44.544854 C236.946446,44.544854 237.274411,44.6480043 237.496581,44.8543049 C237.71875,45.0612666 237.829835,45.3217872 237.829835,45.637189 C237.829835,46.0140843 237.721395,46.3810613 237.504515,46.7374587 C237.204983,47.222794 236.827426,47.6142361 236.373168,47.9111238 C235.91891,48.2086727 235.409771,48.4341486 234.846412,48.5895352 C234.469517,48.6926855 233.963022,48.7700482 233.328251,48.8216234" id="Fill-34" fill="#003468" mask="url(#mask-4)"></path>
                        <polygon id="Fill-35" fill="#003468" mask="url(#mask-4)" points="243.049173 53.0499253 244.44567 53.0499253 244.44567 38.6128532 243.049173 38.6128532"></polygon>
                        <path d="M258.275411,40.9802183 L257.399956,44.544854 L257.144064,44.544854 C257.087199,43.9867845 256.986694,43.5398 256.841887,43.2039003 C256.625007,42.718565 256.336715,42.3443147 255.977673,42.080488 C255.61863,41.8173225 255.230494,41.6850786 254.811942,41.6850786 C254.408598,41.6850786 254.056168,41.8391428 253.753991,42.14661 C253.451813,42.4540771 253.301055,42.8012175 253.301055,43.1886923 C253.301055,43.5708773 253.405528,43.9464501 253.614473,44.316072 C253.82408,44.6856938 254.318672,45.2417796 255.09825,45.9856519 C255.723764,46.5800884 256.142978,47.0912113 256.357874,47.5203429 C256.572109,47.9488133 256.679227,48.4136508 256.679227,48.9148554 C256.679227,49.4782146 256.52913,49.9972721 256.229597,50.4720279 C255.930065,50.9474449 255.494982,51.3157443 254.92435,51.5762649 C254.353056,51.8374467 253.706383,51.967707 252.983008,51.967707 C252.538669,51.967707 251.979938,51.9022462 251.305494,51.7700023 C250.63105,51.6384195 250.183404,51.5729588 249.961234,51.5729588 C249.78535,51.5729588 249.627979,51.6000688 249.488462,51.6542888 C249.348945,51.7085088 249.175705,51.8129815 248.969405,51.967707 L248.667227,51.967707 L249.604837,47.9620377 L249.899079,47.9620377 C249.966524,48.6642531 250.108025,49.2619957 250.325566,49.7552657 C250.542446,50.2491968 250.851897,50.6340267 251.255241,50.9104166 C251.657924,51.1868064 252.117472,51.3250014 252.634546,51.3250014 C253.145668,51.3250014 253.573478,51.1557291 253.916651,50.8171846 C254.260485,50.4786401 254.432402,50.0825694 254.432402,49.6276503 C254.432402,49.2401755 254.335203,48.86857 254.141465,48.5121725 C253.947728,48.1557751 253.506033,47.6360564 252.816381,46.9543388 C252.126729,46.2726212 251.649989,45.6629766 251.386824,45.1260662 C251.195731,44.7280119 251.099855,44.30417 251.099855,43.8552018 C251.099855,43.0749625 251.407322,42.4005183 252.022256,41.8325306 C252.63719,41.2645428 253.440572,40.9802183 254.432402,40.9802183 C254.88137,40.9802183 255.473162,41.0807237 256.206455,41.2823957 C256.635586,41.4014153 256.937764,41.4609251 257.112987,41.4609251 C257.263084,41.4609251 257.397312,41.4285253 257.516331,41.3637258 C257.634689,41.2989262 257.774207,41.1713108 257.934222,40.9802183 L258.275411,40.9802183 Z" id="Fill-36" fill="#003468" mask="url(#mask-4)"></path>
                        <path d="M262.738645,44.9552731 C262.4649,44.9552731 262.23744,45.0352807 262.056927,45.1952959 C261.69524,45.520616 261.287267,46.2816799 260.832348,47.4771653 C260.37809,48.6733118 260.150631,49.7517612 260.150631,50.7125135 C260.150631,50.9498914 260.222704,51.1462737 260.367511,51.3016603 C260.512318,51.4563857 260.682912,51.5337484 260.878634,51.5337484 C261.080306,51.5337484 261.258835,51.4715938 261.41356,51.3479457 C261.64102,51.1621429 261.920055,50.7449133 262.250664,50.0962567 C262.581274,49.4482613 262.852374,48.7328216 263.063965,47.9499374 C263.275555,47.1677144 263.382011,46.4509522 263.382011,45.7996507 C263.382011,45.5311955 263.317212,45.3235725 263.188274,45.1761205 C263.058675,45.0286685 262.909239,44.9552731 262.738645,44.9552731 M263.05603,44.5446556 C263.464664,44.5446556 263.848171,44.6385488 264.207214,44.8276577 C264.566256,45.0161053 264.837356,45.2779484 265.020514,45.613848 C265.204333,45.9497476 265.295581,46.3213531 265.295581,46.7299869 C265.295581,47.5664299 265.062171,48.4035341 264.594689,49.2399771 C264.127206,50.0770813 263.510949,50.7369786 262.746579,51.2203303 C261.981548,51.7030207 261.211888,51.9443659 260.4376,51.9443659 C259.734723,51.9443659 259.191201,51.7354205 258.806371,51.3168684 C258.421541,50.8983163 258.229126,50.3871934 258.229126,49.7828385 C258.229126,49.0647539 258.371949,48.3916322 258.658919,47.7641346 C258.945888,47.1366371 259.309559,46.5891471 259.751254,46.1216648 C260.192949,45.6541824 260.700765,45.273981 261.274043,44.9823831 C261.84732,44.6907852 262.441757,44.5446556 263.05603,44.5446556" id="Fill-37" fill="#003468" mask="url(#mask-4)"></path>
                        <path d="M270.79726,40.9802183 L268.232389,49.705013 C268.082953,50.2220868 268.007574,50.5447621 268.007574,50.6736999 C268.007574,50.7411443 268.029395,50.7980092 268.073696,50.8442946 C268.117337,50.89058 268.165606,50.9137227 268.217181,50.9137227 C268.309752,50.9137227 268.397694,50.8780168 268.480346,50.8052826 C268.728304,50.6042718 269.004694,50.2630824 269.309516,49.7830369 L269.611693,49.921893 C269.121068,50.7074221 268.637717,51.2681365 268.162961,51.6033749 C267.83698,51.8308345 267.491162,51.9445643 267.124185,51.9445643 C266.783657,51.9445643 266.512556,51.8526547 266.310884,51.6694969 C266.109212,51.486339 266.008707,51.2654916 266.008707,51.0069547 C266.008707,50.8158622 266.070862,50.508395 266.19451,50.0852143 L268.286609,42.9407349 C268.400339,42.5479704 268.457204,42.2874498 268.457204,42.1578507 C268.457204,42.0342026 268.402984,41.9356809 268.294544,41.8636079 C268.149737,41.7604576 267.930212,41.7161559 267.635969,41.7320252 L267.721266,41.4371212 L270.332423,40.9802183 L270.79726,40.9802183 Z" id="Fill-38" fill="#003468" mask="url(#mask-4)"></path>
                        <path d="M274.400379,44.5445895 L272.897427,49.8138497 C272.824692,50.0565174 272.788325,50.2244672 272.788325,50.317038 C272.788325,50.3639846 272.806839,50.3996904 272.843207,50.4261392 C272.884202,50.4671349 272.933132,50.4876327 272.989997,50.4876327 C273.228036,50.4876327 273.545422,50.2760423 273.943476,49.8522005 C274.511464,49.2379273 275.107884,48.3545377 275.733398,47.2026929 L276.438258,44.8315589 L278.398775,44.7614696 L276.911031,49.8760044 C276.786721,50.3097646 276.725228,50.557722 276.725228,50.6198766 C276.725228,50.6608722 276.744403,50.7031903 276.783415,50.747492 C276.821766,50.7911325 276.8621,50.8129528 276.903096,50.8129528 C276.97583,50.8129528 277.045258,50.7825367 277.112703,50.720382 C277.298505,50.5702851 277.543818,50.2681077 277.84864,49.8138497 L278.111806,49.9996525 C277.393721,51.2963044 276.603563,51.9442998 275.740672,51.9442998 C275.420641,51.9442998 275.168716,51.8629698 274.985559,51.7003097 C274.801739,51.5376496 274.710491,51.3247369 274.710491,51.0609102 C274.710491,50.7825367 274.774629,50.4281229 274.904229,49.9996525 L275.283769,48.6904374 C274.611969,49.6663977 274.123989,50.3249726 273.819167,50.666162 C273.354329,51.1772849 272.962887,51.5184743 272.645502,51.689069 C272.327455,51.8596637 272.023955,51.9442998 271.735002,51.9442998 C271.461257,51.9442998 271.224541,51.8437944 271.025513,51.6421224 C270.827148,51.4411116 270.727303,51.1852195 270.727303,50.8751074 C270.727303,50.611942 270.792103,50.2581894 270.921041,49.8138497 L271.796496,46.7140515 C271.941303,46.2082184 272.014037,45.867029 272.014037,45.6911446 C272.014037,45.6137819 271.992878,45.5456762 271.951882,45.4861665 C271.910226,45.4266567 271.84212,45.3803713 271.746243,45.3466491 C271.651027,45.3129269 271.47382,45.2963964 271.215945,45.2963964 L271.293307,45.0014924 L273.935542,44.5445895 L274.400379,44.5445895 Z" id="Fill-39" fill="#003468" mask="url(#mask-4)"></path>
                        <path d="M283.559331,42.6538978 L282.939768,44.7618663 L283.95474,44.7618663 L283.682979,45.6525293 L282.683876,45.6525293 L281.389869,50.14684 C281.307216,50.4258747 281.265559,50.6374651 281.265559,50.7822722 C281.265559,50.8497166 281.288702,50.9072427 281.335649,50.9568342 C281.381934,51.0057645 281.433509,51.0302296 281.490374,51.0302296 C281.578316,51.0302296 281.668903,50.9938625 281.761474,50.9217896 C281.999513,50.7406153 282.275903,50.4258747 282.590644,49.9762453 L282.861744,50.14684 C282.505346,50.7670641 282.112582,51.2213221 281.684111,51.5109364 C281.255641,51.7998894 280.834444,51.9446965 280.421182,51.9446965 C280.070074,51.9446965 279.797651,51.8554319 279.603914,51.6769025 C279.410177,51.4990344 279.312977,51.2728972 279.312977,50.9991523 C279.312977,50.6996197 279.380422,50.3147898 279.514649,49.8446626 L280.738567,45.6525293 L279.685244,45.6525293 L279.83997,45.0792518 C280.501189,44.8365842 281.059259,44.5522597 281.513517,44.2269396 C281.968436,43.9016194 282.515926,43.3772722 283.156648,42.6538978 L283.559331,42.6538978 Z" id="Fill-40" fill="#003468" mask="url(#mask-4)"></path>
                        <path d="M286.984251,40.9802183 C287.304281,40.9802183 287.57472,41.0913032 287.794245,41.3134731 C288.01377,41.5356429 288.123532,41.8040981 288.123532,42.1195 C288.123532,42.4342406 288.012447,42.7026958 287.790277,42.9248656 C287.568108,43.1470355 287.299652,43.2581204 286.984251,43.2581204 C286.674139,43.2581204 286.408328,43.1470355 286.186158,42.9248656 C285.963989,42.7026958 285.852904,42.4342406 285.852904,42.1195 C285.852904,41.8040981 285.962666,41.5356429 286.182191,41.3134731 C286.401716,41.0913032 286.668849,40.9802183 286.984251,40.9802183 Z M287.464957,44.544854 L285.876046,50.054137 C285.788104,50.3688776 285.744464,50.5758394 285.744464,50.6736999 C285.744464,50.7305648 285.767606,50.7834624 285.813892,50.8323926 C285.860838,50.8819841 285.909769,50.9064493 285.961344,50.9064493 C286.049286,50.9064493 286.137228,50.8674373 286.22517,50.7900746 C286.457258,50.5989821 286.736293,50.2525029 287.061613,49.7519596 L287.32544,49.906685 C286.545201,51.2654916 285.716031,51.9445643 284.837931,51.9445643 C284.502032,51.9445643 284.234899,51.8500099 284.035872,51.6615622 C283.836845,51.4731146 283.737662,51.2344143 283.737662,50.9448 C283.737662,50.7537075 283.781302,50.5110398 283.869244,50.2167971 L284.946371,46.512644 C285.049522,46.1562466 285.101097,45.8877913 285.101097,45.7066171 C285.101097,45.5935485 285.052166,45.4923819 284.954306,45.4044397 C284.855784,45.3171587 284.721557,45.272857 284.550962,45.272857 C284.473599,45.272857 284.380367,45.2755018 284.271927,45.2807916 L284.373094,44.9706795 L286.999459,44.544854 L287.464957,44.544854 Z" id="Fill-41" fill="#003468" mask="url(#mask-4)"></path>
                        <path d="M292.726018,44.9552731 C292.452273,44.9552731 292.224814,45.0352807 292.044301,45.1952959 C291.682614,45.520616 291.274641,46.2816799 290.819722,47.4771653 C290.365464,48.6733118 290.138004,49.7517612 290.138004,50.7125135 C290.138004,50.9498914 290.210077,51.1462737 290.354884,51.3016603 C290.499692,51.4563857 290.670286,51.5337484 290.866007,51.5337484 C291.067679,51.5337484 291.246209,51.4715938 291.400934,51.3479457 C291.628394,51.1621429 291.907428,50.7449133 292.238038,50.0962567 C292.568648,49.4482613 292.839748,48.7328216 293.051339,47.9499374 C293.262929,47.1677144 293.369385,46.4509522 293.369385,45.7996507 C293.369385,45.5311955 293.304586,45.3235725 293.175648,45.1761205 C293.046049,45.0286685 292.896613,44.9552731 292.726018,44.9552731 M293.043404,44.5446556 C293.452038,44.5446556 293.835545,44.6385488 294.194588,44.8276577 C294.55363,45.0161053 294.82473,45.2779484 295.007888,45.613848 C295.191707,45.9497476 295.282955,46.3213531 295.282955,46.7299869 C295.282955,47.5664299 295.049545,48.4035341 294.582062,49.2399771 C294.11458,50.0770813 293.498323,50.7369786 292.733953,51.2203303 C291.968922,51.7030207 291.199262,51.9443659 290.424974,51.9443659 C289.722097,51.9443659 289.178574,51.7354205 288.793745,51.3168684 C288.408915,50.8983163 288.2165,50.3871934 288.2165,49.7828385 C288.2165,49.0647539 288.359323,48.3916322 288.646293,47.7641346 C288.933262,47.1366371 289.296933,46.5891471 289.738628,46.1216648 C290.180322,45.6541824 290.688139,45.273981 291.261417,44.9823831 C291.834694,44.6907852 292.429131,44.5446556 293.043404,44.5446556" id="Fill-42" fill="#003468" mask="url(#mask-4)"></path>
                        <path d="M300.002015,44.5445895 L299.041262,47.8685412 C299.686613,46.8978706 300.169964,46.234006 300.489995,45.8776085 C300.960122,45.3605347 301.366111,45.009427 301.706639,44.8236243 C302.047828,44.6378215 302.367859,44.5445895 302.667391,44.5445895 C302.935847,44.5445895 303.165951,44.6437725 303.357044,44.8427996 C303.548136,45.0418268 303.644013,45.3016861 303.644013,45.6217165 C303.644013,45.9106695 303.581858,46.2624384 303.45821,46.6757008 L302.466381,49.9844444 C302.383728,50.2733975 302.342071,50.4618451 302.342071,50.5497873 C302.342071,50.6013625 302.361247,50.6476478 302.400259,50.6893047 C302.439271,50.7303003 302.478944,50.7514594 302.520601,50.7514594 C302.572176,50.7514594 302.626396,50.7303003 302.683261,50.6893047 C302.863774,50.5392078 303.046931,50.3276175 303.233395,50.0538725 C303.279681,49.9817996 303.354399,49.8733595 303.45821,49.7285524 L303.752453,49.9064205 C302.992711,51.1825746 302.194619,51.8206517 301.358176,51.8206517 C301.037485,51.8206517 300.786882,51.7379992 300.606369,51.5726943 C300.425856,51.4073893 300.335269,51.2004276 300.335269,50.9524702 C300.335269,50.7355901 300.397424,50.4129148 300.521072,49.9844444 L301.489759,46.6757008 C301.557203,46.4588207 301.590264,46.2981443 301.590264,46.194994 C301.590264,46.1381291 301.567122,46.0878764 301.520836,46.0442359 C301.474551,45.9999342 301.420331,45.9781139 301.358176,45.9781139 C301.161794,45.9781139 300.924416,46.1123416 300.645381,46.3807968 C299.932586,47.0631756 299.242934,48.0781479 298.576425,49.426375 L297.940993,51.7274197 L295.965268,51.7274197 L297.414,46.7530635 C297.553518,46.2624384 297.622946,45.9133144 297.622946,45.7070138 C297.622946,45.6190716 297.602448,45.5456762 297.561452,45.4861665 C297.519796,45.4266567 297.453012,45.3803713 297.35978,45.3466491 C297.266548,45.3129269 297.091325,45.2963964 296.832788,45.2963964 L296.918086,45.0014924 L299.529242,44.5445895 L300.002015,44.5445895 Z" id="Fill-43" fill="#003468" mask="url(#mask-4)"></path>
                        <path d="M310.493654,44.5445895 L310.152465,46.9388663 L309.866157,46.9388663 C309.8245,46.3193033 309.63473,45.8306619 309.296185,45.4742645 C308.958302,45.117867 308.595293,44.9399989 308.207818,44.9399989 C307.97044,44.9399989 307.774058,45.009427 307.618671,45.1489444 C307.463946,45.2884617 307.386583,45.4564116 307.386583,45.6527938 C307.386583,45.8180988 307.420305,45.9728242 307.487088,46.1176313 C307.554533,46.2624384 307.703968,46.4588207 307.936718,46.7067781 C308.752663,47.584878 309.248578,48.1892328 309.424462,48.5198427 C309.599685,48.8504526 309.687628,49.2042051 309.687628,49.5811004 C309.687628,49.989073 309.584477,50.3752253 309.378177,50.7395574 C309.171215,51.1038895 308.862425,51.3954874 308.451808,51.6150123 C308.04119,51.8345373 307.614042,51.9442998 307.169703,51.9442998 C306.87017,51.9442998 306.500548,51.8854512 306.061498,51.7664317 C305.771884,51.6837792 305.555004,51.6421224 305.410858,51.6421224 C305.281259,51.6421224 305.180754,51.661959 305.10802,51.7003097 C305.035947,51.7393217 304.955939,51.8206517 304.867997,51.9442998 L304.581689,51.9442998 L304.961229,49.3642203 L305.209186,49.3642203 C305.389699,49.989073 305.558971,50.4347351 305.716342,50.7012066 C305.874373,50.967017 306.084641,51.1786073 306.347807,51.3359776 C306.611633,51.4940091 306.86488,51.5726943 307.107548,51.5726943 C307.391873,51.5726943 307.626606,51.4834296 307.812408,51.3055615 C307.998872,51.1270322 308.091443,50.9141194 308.091443,50.666162 C308.091443,50.4234944 308.030611,50.1881001 307.909608,49.9606405 C307.787943,49.7338422 307.507586,49.3794284 307.068536,48.8993828 C306.464181,48.2434528 306.066788,47.7369585 305.875696,47.380561 C305.741468,47.1220241 305.674024,46.8277813 305.674024,46.4971715 C305.674024,45.939102 305.877018,45.4742645 306.282346,45.102659 C306.687674,44.7303923 307.256984,44.5445895 307.990938,44.5445895 C308.310968,44.5445895 308.703733,44.6014544 309.16857,44.7151842 C309.401319,44.7720491 309.587122,44.8004816 309.72664,44.8004816 C309.928312,44.8004816 310.090972,44.7151842 310.21462,44.5445895 L310.493654,44.5445895 Z" id="Fill-44" fill="#003468" mask="url(#mask-4)"></path>
                        <path d="M54.9664708,10.4823829 L48.6048755,10.4823829 C37.4434861,-1.18285602 7.72364182,-1.68736669 -6.61219754e-05,17.3213788 C3.43893782,1.09372359 37.1651126,-8.52437894 54.9664708,10.4823829" id="Fill-45" fill="#E21837" mask="url(#mask-4)"></path>
                        <path d="M36.6208626,10.4914416 C18.6965175,1.21452844 -0.678543711,14.9963318 3.09900474,26.2820305 C1.21122235,14.0283061 19.5541195,6.72843997 30.6626114,10.4914416 L36.6208626,10.4914416" id="Fill-46" fill="#003468" mask="url(#mask-4)"></path>
                        <path d="M45.6942523,10.4823829 C42.0469641,5.88955047 17.6314247,-2.92649251 3.77820967,13.3011627 C-2.71761319,20.9071735 -0.630803645,32.3852872 8.45237211,33.5477116 C10.8082981,33.8512114 13.7546933,33.5893684 17.8654965,30.1602828 C21.4962542,27.1345412 25.479442,19.8399648 27.850576,19.0742724 C28.9012542,18.7337442 30.0167319,18.6054676 33.9377651,18.6054676 C36.8762257,18.5995166 39.8100577,18.6200144 39.8100577,18.6200144 C42.6334661,18.5770351 43.2523678,18.1108752 44.1483205,17.4866837 C45.0436121,16.8591862 48.3516945,13.6423521 48.3516945,13.6423521 L30.8809462,13.6423521 C28.7987652,13.6866538 26.0560256,13.7461636 24.3983477,15.1790268 C23.1202099,16.2859087 19.6785611,21.356803 18.1894942,23.4502247 C15.1373038,27.7349287 11.482081,32.3918994 7.22051971,31.4053595 C3.92433924,30.6442956 2.48684749,28.5998041 1.84017457,26.4276972 C0.360364766,21.4632593 2.89283642,16.5715556 4.71780294,14.3809345 C7.74156088,10.7521605 12.8309693,7.70592113 18.4076967,6.51903167 C23.463383,5.4419047 29.4989969,5.51596131 35.4096403,8.02132296 C37.8892143,9.0739848 39.8292331,10.4823829 39.8292331,10.4823829 L45.6942523,10.4823829" id="Fill-47" fill="#003468" mask="url(#mask-4)"></path>
                        <path d="M23.8246073,26.6154175 C23.8246073,26.6154175 26.4284907,23.1301282 27.0797922,22.5343692 C27.2550154,22.3723704 27.6881143,21.6549469 29.3213271,21.637094 C32.3774848,21.5722945 39.1404405,21.631143 39.1404405,21.631143 C39.1404405,21.631143 37.2500132,23.6009167 36.762033,24.0247585 C35.8475661,24.8162386 35.1651873,25.0860162 33.9571388,25.1197384 C33.9571388,25.1197384 29.2644622,25.025184 27.6596819,25.0708082 C25.9636532,25.1197384 24.2292738,26.3542357 23.8246073,26.6154175" id="Fill-48" fill="#003468" mask="url(#mask-4)"></path>
                        <path d="M56.7544751,26.6942349 L47.7612253,26.6942349 C44.7579651,26.7676303 45.4846456,28.1713999 41.6594894,31.0781219 C39.7452582,32.5599154 37.3271775,33.8069758 35.2628495,34.8060789 C26.4798675,39.0511097 14.9184401,38.7793484 7.87380483,34.601762 C14.0469525,41.251649 45.341161,46.3992448 56.7544751,26.6942349" id="Fill-49" fill="#E21837" mask="url(#mask-4)"></path>
                        <polygon id="Fill-50" fill="#003468" mask="url(#mask-4)" points="71.5599128 10.5895666 86.1682408 10.5895666 85.2802227 14.3611641 76.0350481 14.3611641 74.888493 19.2059212 83.5795654 19.2059212 82.6915473 22.9166865 74.0381644 22.9166865 72.1517044 31.2566512 66.8262405 31.2566512"></polygon>
                        <path d="M90.9758374,14.2999351 C89.4226322,14.2999351 88.2760771,13.3801785 88.2760771,12.0002128 C88.2760771,10.4053508 89.792254,9.33219112 91.5306007,9.33219112 C93.1942296,9.33219112 94.3784742,10.2215317 94.3784742,11.6319134 C94.3784742,13.318685 92.8246078,14.2999351 91.0128657,14.2999351 L90.9758374,14.2999351 Z M84.2446203,31.2569157 L87.6842854,16.2624354 L92.972721,16.2624354 L89.5707454,31.2569157 L84.2446203,31.2569157 Z" id="Fill-51" fill="#003468" mask="url(#mask-4)"></path>
                        <path d="M93.2726503,31.2569157 L95.3435906,22.3337551 C95.8242973,20.0644489 96.0828343,17.5504914 96.2679758,16.2624354 L100.854196,16.2624354 C100.780139,17.2747628 100.669054,18.286429 100.520941,19.3595887 L100.669054,19.3595887 C101.926694,17.335595 103.923578,15.9252133 106.401169,15.9252133 C106.771452,15.9252133 107.104045,15.9556294 107.39961,15.9556294 L106.36414,20.2793454 C106.142632,20.2489293 105.847066,20.2489293 105.55084,20.2489293 C102.185231,20.2489293 100.55797,22.7318094 99.8921213,25.6768822 L98.6351425,31.2569157 L93.2726503,31.2569157 Z" id="Fill-52" fill="#003468" mask="url(#mask-4)"></path>
                        <path d="M108.398713,27.3321797 C109.434184,27.7606501 111.394039,28.3742621 113.132386,28.3742621 C114.611534,28.3742621 115.388467,27.7606501 115.388467,27.0253738 C115.388467,26.2894362 114.796676,25.768395 113.132386,25.0932897 C111.061445,24.2350264 109.323099,22.9773864 109.323099,21.107457 C109.323099,17.9792263 112.614651,15.9254778 117.274266,15.9254778 C119.382235,15.9254778 121.046525,16.293116 121.897515,16.6918315 L120.639875,19.8194009 C119.900631,19.5436723 118.605963,19.1753729 117.015729,19.1753729 C115.610637,19.1753729 114.685591,19.6659979 114.685591,20.4938451 C114.685591,21.107457 115.425496,21.6284981 116.867616,22.1806166 C118.865161,23.0084638 120.93544,24.2350264 120.93544,26.3198523 C120.93544,29.7542277 117.422379,31.6248184 112.614651,31.5937411 C110.358569,31.5633249 108.177205,31.0726999 107.104045,30.4293331 L108.398713,27.3321797 Z" id="Fill-53" fill="#003468" mask="url(#mask-4)"></path>
                        <path d="M133.324582,12.2148448 L132.400197,16.2621709 L136.283541,16.2621709 L135.469579,19.6357141 L131.623264,19.6357141 L130.403313,24.6953676 C130.2552,25.3083183 130.107087,26.0740108 130.107087,26.5963744 C130.107087,27.332312 130.476709,27.8533532 131.660292,27.8533532 C132.103971,27.8533532 132.658734,27.8533532 133.103074,27.7918597 L132.511282,31.2566512 C131.808405,31.4715476 130.476709,31.5938733 129.367843,31.5938733 C126.149687,31.5938733 124.63351,30.244985 124.63351,28.343317 C124.63351,27.5465472 124.744595,26.7187001 125.040821,25.584047 L126.408885,19.6357141 L124.115775,19.6357141 L124.85568,16.2621709 L127.185157,16.2621709 L127.851005,13.4414074 L133.324582,12.2148448 Z" id="Fill-54" fill="#003468" mask="url(#mask-4)"></path>
                        <path d="M158.7625,30.7047972 C157.430803,31.1954223 155.21175,31.5941378 152.216424,31.5941378 C145.596292,31.5941378 141.195874,28.2827493 141.195874,22.8243802 C141.195874,18.133026 143.710493,14.5148315 147.482752,12.4293444 C150.071427,10.9574693 153.103781,10.2519478 156.617503,10.2519478 C159.317263,10.2519478 161.351175,10.7736502 162.09108,11.1108723 L160.61127,14.6986506 C159.908393,14.3918447 158.244765,14.0235453 156.099768,14.0235453 C153.954771,14.0235453 151.920198,14.5756638 150.404021,15.6184073 C148.33308,17.0598664 146.965017,19.4210821 146.965017,22.303339 C146.965017,25.6147276 149.220437,27.8232015 153.584488,27.8232015 C155.359863,27.8232015 157.098209,27.577889 158.318821,27.1474349 L158.7625,30.7047972 Z" id="Fill-55" fill="#003468" mask="url(#mask-4)"></path>
                        <path d="M161.439646,31.2569157 L166.432517,9.4855941 L171.757319,9.4855941 L169.723407,18.1945195 L169.798125,18.1945195 C171.314302,16.8145539 173.200101,15.9252133 175.567267,15.9252133 C178.377451,15.9252133 180.115798,17.3970885 180.115798,19.9725394 C180.115798,20.6780609 179.967685,21.8437913 179.783205,22.6716384 L177.822688,31.2569157 L172.497885,31.2569157 L174.383684,23.0392766 C174.531797,22.4560808 174.605193,21.812714 174.605193,21.199102 C174.605193,20.1874358 174.125147,19.4819143 172.793451,19.4819143 C170.906991,19.4819143 169.021192,21.3829211 168.355344,24.3881649 L166.76511,31.2569157 L161.439646,31.2569157 Z" id="Fill-56" fill="#003468" mask="url(#mask-4)"></path>
                        <path d="M190.471293,28.2213881 C193.355533,28.2213881 195.019824,24.6951031 195.019824,22.1494071 C195.019824,20.7396866 194.28058,19.2982275 192.17195,19.2982275 C189.103229,19.2982275 187.549363,22.9772542 187.549363,25.3087151 C187.549363,27.0556576 188.621861,28.2213881 190.433603,28.2213881 L190.471293,28.2213881 Z M189.769078,31.59427 C185.145168,31.59427 182.076447,29.1107286 182.076447,25.3999634 C182.076447,20.2179842 186.439836,15.9253455 192.875488,15.9253455 C197.757273,15.9253455 200.567457,18.6846156 200.567457,22.118991 C200.567457,27.57736 196.018927,31.59427 189.805445,31.59427 L189.769078,31.59427 Z" id="Fill-57" fill="#003468" mask="url(#mask-4)"></path>
                        <path d="M208.185436,14.2999351 C206.632231,14.2999351 205.485676,13.3801785 205.485676,12.0002128 C205.485676,10.4053508 207.002514,9.33219112 208.7402,9.33219112 C210.40449,9.33219112 211.588073,10.2215317 211.588073,11.6319134 C211.588073,13.318685 210.034868,14.2999351 208.223126,14.2999351 L208.185436,14.2999351 Z M201.45488,31.2569157 L204.893884,16.2624354 L210.182981,16.2624354 L206.780344,31.2569157 L201.45488,31.2569157 Z" id="Fill-58" fill="#003468" mask="url(#mask-4)"></path>
                        <path d="M224.903188,30.7971696 C223.756632,31.2567173 221.907862,31.5939394 219.762865,31.5939394 C215.28773,31.5939394 212.14363,29.3246332 212.14363,25.4313713 C212.14363,20.0946667 217.063105,15.9250149 223.941774,15.9250149 C225.494979,15.9250149 226.826015,16.1703274 227.639976,16.4460561 L226.308279,19.818938 C225.679459,19.6047028 224.940216,19.4512999 223.867717,19.4512999 C220.095459,19.4512999 217.728292,22.1193216 217.728292,24.9407463 C217.728292,27.0255721 219.318525,28.0683157 221.279042,28.0683157 C222.831586,28.0683157 223.941774,27.7608485 224.865498,27.4547038 L224.903188,30.7971696 Z" id="Fill-59" fill="#003468" mask="url(#mask-4)"></path>
                        <path d="M240.028589,20.4023322 C240.028589,19.6663947 239.289346,19.1446923 238.068734,19.1446923 C235.590482,19.1446923 234.18539,20.86188 233.815769,22.2411844 C237.957649,22.2722617 240.028589,21.812714 240.028589,20.4327483 L240.028589,20.4023322 Z M242.765378,30.3979913 C240.657409,31.287993 238.031044,31.5941378 236.034822,31.5941378 C230.85681,31.5941378 228.194739,29.1720898 228.194739,25.2464282 C228.194739,20.6780609 232.188507,15.9252133 238.734582,15.9252133 C242.395756,15.9252133 245.02146,17.642401 245.02146,20.4327483 C245.02146,24.2354231 240.546324,25.6147276 233.297372,25.4613246 C233.297372,25.8911174 233.483175,26.5649003 233.852136,26.9946932 C234.555673,27.7610469 235.775624,28.1597624 237.328829,28.1597624 C239.289346,28.1597624 240.952975,27.7921242 242.395756,27.2095896 L242.765378,30.3979913 Z" id="Fill-60" fill="#003468" mask="url(#mask-4)"></path>
                        <path d="M259.403452,18.8073379 L261.178827,18.8073379 C264.100757,18.8073379 266.097641,17.7956717 266.097641,16.0169906 C266.097641,14.5451154 264.65486,13.9010874 262.620948,13.9010874 C261.696562,13.9010874 260.919629,13.9625808 260.512979,14.0240742 L259.403452,18.8073379 Z M257.258455,27.8839015 C257.887275,27.9453949 258.516095,27.9453949 259.292367,27.9453949 C262.177269,27.9453949 264.802973,26.9945609 264.802973,24.6948386 C264.802973,22.6404289 262.732032,22.0268169 260.253781,22.0268169 L258.590152,22.0268169 L257.258455,27.8839015 Z M255.926759,10.957337 C257.702134,10.6511923 260.032272,10.466712 262.473496,10.466712 C265.098538,10.466712 266.984998,10.7431018 268.648627,11.5398716 C270.313578,12.2453931 271.53419,13.5949426 271.53419,15.3425464 C271.53419,17.9490747 269.24108,19.5743529 266.504291,20.2177197 L266.504291,20.3096292 C268.907825,20.9232412 270.424663,22.5485193 270.424663,24.8178255 C270.424663,27.0560544 268.981882,28.6509164 267.021365,29.7240761 C264.914058,30.9195614 261.770619,31.4108477 257.628077,31.4108477 C254.817232,31.4108477 252.56115,31.2567835 251.3412,31.0425483 L255.926759,10.957337 Z" id="Fill-61" fill="#003468" mask="url(#mask-4)"></path>
                        <path d="M285.66115,19.390137 C285.2545,19.3286436 284.81016,19.2671502 284.255397,19.2671502 C280.816393,19.2671502 278.301113,22.763019 278.301113,25.5540276 C278.301113,27.0252415 279.003989,28.037569 280.483138,28.037569 C282.073371,28.037569 284.107283,26.5346165 284.921245,22.8549285 L285.66115,19.390137 Z M284.218368,31.257048 C284.255397,30.3981235 284.366482,29.3560412 284.440538,28.2828815 L284.366482,28.2828815 C282.665163,30.7664229 280.335025,31.59427 278.227717,31.59427 C274.973194,31.59427 272.753479,29.5087829 272.753479,26.3818747 C272.753479,21.3215599 276.821964,15.9253455 285.698178,15.9253455 C287.879542,15.9253455 290.172652,16.2625676 291.652462,16.6612831 L289.839398,24.511284 C289.395719,26.4427069 289.026097,29.3871185 289.100154,31.257048 L284.218368,31.257048 Z" id="Fill-62" fill="#003468" mask="url(#mask-4)"></path>
                        <path d="M292.428337,31.2569157 L294.721447,21.1376086 C295.165126,19.2366018 295.460691,17.6113237 295.682861,16.2624354 L300.378844,16.2624354 L300.04625,18.7459768 L300.120307,18.7459768 C301.821625,16.8145539 304.077707,15.9252133 306.444212,15.9252133 C309.403171,15.9252133 311.104489,17.4275046 311.104489,20.0340328 C311.104489,20.708477 310.956376,21.812714 310.808263,22.5486516 L308.811379,31.2569157 L303.485915,31.2569157 L305.371714,22.9473671 C305.482799,22.4263259 305.556856,21.8437913 305.556856,21.2910116 C305.556856,20.2178519 305.113177,19.4819143 303.744452,19.4819143 C302.006105,19.4819143 300.009883,21.2910116 299.23295,24.6030613 L297.753801,31.2569157 L292.428337,31.2569157 Z" id="Fill-63" fill="#003468" mask="url(#mask-4)"></path>
                        <path d="M313.28063,31.2569157 L318.272839,9.4855941 L323.561936,9.4855941 L320.565949,22.5175742 L320.640005,22.5175742 C321.194769,21.9350396 321.749532,21.352505 322.267267,20.8308026 L326.889855,16.2624354 L333.472958,16.2624354 L325.780328,22.4560808 L330.810226,31.2569157 L324.855943,31.2569157 L321.675476,24.8483739 L319.678592,26.4425747 L318.569065,31.2569157 L313.28063,31.2569157 Z" id="Fill-64" fill="#003468" mask="url(#mask-4)"></path>
                    </g>
                </g>
            </g>
        </g>
    </g>
</svg>